# xmcd
#
# Track frame offsets:
# 150
# 18899
# 32834
# 51778
# 71968
# 85809
# 103581
# 119860
# 135540
# 157614
# 173833
# 187036
# 201144
# 219574
# 235704
# 252121
# 272296
# 294548
# 312033
#
# Disc length: 4399 seconds
#
# Revision: 0
# Processed by: cddbd v1.5.2PL0 Copyright (c) Steve Scherf et al.
# Submitted via: Audion 3.0.2 (http://www.panic.com/audion/)
#
DISCID=08112d13
DTITLE=Max Brooks - The Zombie Survival Guide [CD4]
DYEAR=1900
DGENRE=
TTITLE0=Disc 4 - Track 1
TTITLE1=Disc 4 - Track 2
TTITLE2=Disc 4 - Track 3
TTITLE3=Disc 4 - Track 4
TTITLE4=Disc 4 - Track 5
TTITLE5=Disc 4 - Track 6
TTITLE6=Disc 4 - Track 7
TTITLE7=Disc 4 - Track 8
TTITLE8=Disc 4 - Track 9
TTITLE9=Disc 4 - Track 10
TTITLE10=Disc 4 - Track 11
TTITLE11=Disc 4 - Track 12
TTITLE12=Disc 4 - Track 13
TTITLE13=Disc 4 - Track 14
TTITLE14=Disc 4 - Track 15
TTITLE15=Disc 4 - Track 16
TTITLE16=Disc 4 - Track 17
TTITLE17=Disc 4 - Track 18
TTITLE18=Disc 4 - Track 19
EXTD=
EXTT0=
EXTT1=
EXTT2=
EXTT3=
EXTT4=
EXTT5=
EXTT6=
EXTT7=
EXTT8=
EXTT9=
EXTT10=
EXTT11=
EXTT12=
EXTT13=
EXTT14=
EXTT15=
EXTT16=
EXTT17=
EXTT18=
PLAYORDER=
